<?xml version="1.0" encoding="UTF-8"?>
<!-- Generator: Adobe Illustrator 15.0.2, SVG Export Plug-In . SVG Version: 6.00 Build 0)  -->
<svg width="742.1" height="398.55" enable-background="new 0 0 1353.64 413.107" version="1.1" viewBox="0 0 742.1 398.55" xml:space="preserve" xmlns="http://www.w3.org/2000/svg">
<polygon transform="translate(-3.154 -.25)" points="745.25 0.25 156.08 398.8 269.36 202.43 262.6 255.02 559.31 54.174 5.325 51.034" fill="#85b6e3"/>
<path d="m35.677 67.088c2.168 7.491 2.562 10.053 3.351 17.346 3.351-13.601 8.87-17.346 24.639-17.346 9.855 0 14.192 0.789 17.543 3.351 3.745 2.957 5.52 6.308 7.49 13.995 3.942-13.798 9.265-17.346 25.428-17.346 19.515 0 23.851 4.731 23.851 26.019v105.46h-35.283v-88.701c0-9.265-1.773-12.418-7.096-12.418s-7.293 3.351-7.293 12.418v88.701h-35.284v-90.869c0-7.096-2.365-10.447-7.293-10.447-4.73 0-7.096 3.548-7.096 10.841v90.475h-35.283v-101.51c0-12.418-0.789-18.726-3.351-29.961h35.677z"/><path d="m185.88 67.088v131.48h-35.283v-131.48z"/><path d="m260.98 95.67h-15.967v102.89h-35.283v-102.89h-15.966v-28.582h67.216z"/><path d="m333.31 95.67h-30.946v22.865h6.308c22.668 0 28.187 6.899 28.187 34.889v8.082c0 15.178-1.773 24.639-5.321 29.764-3.548 4.928-7.885 6.702-16.755 7.096-3.351 0-3.351 0-14.39 0.197h-32.721v-28.582h32.918v-22.865h-5.519c-13.602 0-19.515-1.971-23.26-8.279-3.745-5.716-4.73-11.827-4.73-27.793v-8.082c0-16.164 2.76-26.808 8.081-31.341 4.534-3.942 8.674-4.534 27.793-4.534h30.355z"/>
<g display="none"><path d="m390.92 96.352c0 5.794-2.063 10.77-6.19 14.926-4.127 4.157-9.077 6.235-14.852 6.235-5.814 0-10.794-2.078-14.941-6.235-4.146-4.156-6.22-9.142-6.22-14.956 0-5.813 2.068-10.794 6.205-14.941s9.142-6.221 15.016-6.221c5.774 0 10.715 2.074 14.822 6.221 4.106 4.147 6.16 9.137 6.16 14.971zm-3.779-0.03c0-4.861-1.692-9.038-5.075-12.53s-7.436-5.238-12.158-5.238c-4.821 0-8.929 1.741-12.321 5.224-3.394 3.482-5.09 7.664-5.09 12.545 0 4.921 1.701 9.118 5.104 12.59 3.402 3.473 7.485 5.208 12.247 5.208 4.723 0 8.785-1.735 12.188-5.208s5.105-7.67 5.105-12.591zm-6.697 12.203h-5.476l-3.959-9.852h-5.833v9.852h-5.209v-24.376h11.31c3.096 0 5.402 0.675 6.92 2.024 1.519 1.349 2.277 3.085 2.277 5.208 0 3.036-1.508 5.179-4.524 6.429zm-15.268-13.721h5.356c3.036 0 4.554-1.161 4.554-3.482 0-2.222-1.389-3.333-4.166-3.333h-5.744z"/></g>
</svg>
